<svg width="255" height="255" viewBox="0 0 255 255" fill="none" xmlns="http://www.w3.org/2000/svg">
<path fill-rule="evenodd" clip-rule="evenodd" d="M76 53L76 143L76 153C76 158.523 80.4772 163 86 163H143C148.523 163 153 158.523 153 153V143H96L96 43H86C80.4772 43 76 47.4772 76 53Z" fill="#000626"/>
<path fill-rule="evenodd" clip-rule="evenodd" d="M101 98C101 92.4772 105.477 88 111 88H158H168C173.523 88 178 92.4772 178 98L178 201C178 206.523 173.523 211 168 211H158V138H101V128C101 122.477 105.477 118 111 118H158V108H111C105.477 108 101 103.523 101 98Z" fill="#FFB648"/>
</svg>
